HIERARCHY
ROOT hip
{
	OFFSET 0.000000 0.000000 0.000000 
	CHANNELS 6 Xposition Yposition Zposition Xrotation Zrotation Yrotation
	JOINT abdomen
	{
		OFFSET 0.000000 3.402643 0.000000 
		CHANNELS 3 Xrotation Zrotation Yrotation
		JOINT chest
		{
			OFFSET 0.000000 8.438565 -0.680529 
			CHANNELS 3 Xrotation Zrotation Yrotation
			JOINT neck
			{
				OFFSET 0.000000 10.207942 -0.272212 
				CHANNELS 3 Xrotation Zrotation Yrotation
				JOINT head
				{
					OFFSET 0.000000 3.130431 0.000000 
					CHANNELS 3 Xrotation Zrotation Yrotation
					End Site
					{
						OFFSET 0.000000 3.130435 0.000000 
					}
				}
			}
			JOINT lCollar
			{
				OFFSET 3.470700 6.669187 -0.816635 
				CHANNELS 3 Yrotation Zrotation Xrotation
				JOINT lShldr
				{
					OFFSET 3.198488 0.000000 0.000000 
					CHANNELS 3 Zrotation Yrotation Xrotation
					JOINT lForeArm
					{
						OFFSET 10.139888 0.000000 0.000000 
						CHANNELS 3 Yrotation Zrotation Xrotation
						JOINT lHand
						{
							OFFSET 8.370511 0.000000 0.000000 
							CHANNELS 3 Zrotation Yrotation Xrotation
							End Site
							{
								OFFSET 4.083176 0.000000 0.000000 
							}
						}
					}
				}
			}
			JOINT rCollar
			{
				OFFSET -3.470700 6.669187 -0.816635 
				CHANNELS 3 Yrotation Zrotation Xrotation
				JOINT rShldr
				{
					OFFSET -3.198488 0.000000 0.000000 
					CHANNELS 3 Zrotation Yrotation Xrotation
					JOINT rForeArm
					{
						OFFSET -10.139888 0.000000 0.000000 
						CHANNELS 3 Yrotation Zrotation Xrotation
						JOINT rHand
						{
							OFFSET -8.370511 0.000000 0.000000 
							CHANNELS 3 Zrotation Yrotation Xrotation
							End Site
							{
								OFFSET -4.083176 0.000000 0.000000 
							}
						}
					}
				}
			}
		}
	}
	JOINT lThigh
	{
		OFFSET 5.308129 -1.633274 1.361059 
		CHANNELS 3 Xrotation Zrotation Yrotation
		JOINT lShin
		{
			OFFSET -2.041588 -20.007561 0.000000 
			CHANNELS 3 Xrotation Zrotation Yrotation
			JOINT lFoot
			{
				OFFSET 0.000000 -19.190928 -1.224953 
				CHANNELS 3 Xrotation Yrotation Zrotation
				End Site
				{
					OFFSET 0.000000 -2.449906 4.627600 
				}
			}
		}
	}
	JOINT rThigh
	{
		OFFSET -5.308129 -1.633274 1.361059 
		CHANNELS 3 Xrotation Zrotation Yrotation
		JOINT rShin
		{
			OFFSET 2.041588 -20.007561 0.000000 
			CHANNELS 3 Xrotation Zrotation Yrotation
			JOINT rFoot
			{
				OFFSET 0.000000 -19.190928 -1.224953 
				CHANNELS 3 Xrotation Yrotation Zrotation
				End Site
				{
					OFFSET 0.000000 -2.449906 4.627600 
				}
			}
		}
	}
}
MOTION
Frames: 11
Frame Time: 0.016667
-0.014217 53.313541 -0.120093 -7.693686 -2.949089 0.537403 21.579994 4.791234 2.126036 5.228345 1.289057 0.254084 1.113278 0.146297 -0.012258 25.700661 -4.217564 1.360927 -11.088559 -17.827641 -0.958485 -64.764885 18.668697 -37.203156 -8.493423 -4.698936 19.105619 4.961093 6.838397 -45.000000 8.632044 13.070731 -0.685130 65.451981 -13.517736 -30.005020 5.761315 3.761630 19.281725 -12.677365 3.482853 -45.000000 13.403988 19.363020 20.625362 9.772686 -7.308369 -1.544619 -5.521876 11.435199 -14.831783 11.241983 -9.047712 -8.142179 10.885151 3.502862 0.742931 -5.708268 -12.365958 15.199755 
-0.011725 53.321014 -0.110129 -7.690422 -2.919820 0.478889 21.817467 4.800007 2.155246 5.158686 1.298826 0.205272 1.230471 -0.011117 -0.008197 25.666471 -4.500233 1.586348 -11.041113 -17.905661 -0.962511 -64.713608 18.720207 -37.249401 -8.541016 -4.772366 19.421463 4.803085 6.824548 -45.000000 8.886191 13.090236 -0.686138 65.443222 -13.755610 -30.337894 6.083977 3.892894 19.415701 -12.628695 3.545262 -45.000000 13.459638 19.311234 20.562202 9.759785 -7.341900 -1.555688 -5.881335 11.590701 -14.969501 11.302687 -9.068053 -8.235432 10.809358 3.482119 0.745729 -5.836356 -12.343280 15.384410 
-0.003264 53.332966 -0.092703 -7.639794 -2.880771 0.449633 22.248602 4.826953 2.163882 5.070144 1.308593 0.195515 1.318409 -0.197497 0.000217 25.532921 -4.685386 1.724173 -11.014073 -18.032433 -0.969047 -64.625130 18.800749 -37.385983 -8.753278 -4.907134 19.737738 4.538681 6.831857 -45.000000 9.130934 13.138996 -0.690877 65.393951 -14.116061 -30.848757 6.622872 4.165644 19.985538 -12.472475 3.568544 -45.000000 13.491178 19.235203 20.550007 9.696018 -7.328564 -1.557422 -6.076622 11.686893 -15.110038 11.339482 -9.145066 -8.388291 10.686428 3.482340 0.727893 -5.711848 -12.197108 15.488345 
0.009177 53.347889 -0.070301 -7.560727 -2.822183 0.439882 22.776440 4.856908 2.165525 4.952745 1.318358 0.215050 1.377150 -0.404650 0.001894 25.347345 -4.792558 1.802829 -10.997697 -18.207954 -0.981140 -64.522820 18.878290 -37.572685 -9.083200 -5.000000 20.056152 4.200793 6.842571 -45.000000 9.375801 13.197507 -0.693909 65.311867 -14.550240 -31.458946 7.308262 4.551955 20.836147 -12.242321 3.579909 -45.000000 13.505388 19.140669 20.631371 9.611406 -7.308361 -1.616424 -6.204476 11.673774 -15.280621 11.354342 -9.246028 -8.593610 10.552622 3.512576 0.740244 -5.415515 -12.005023 15.544851 
0.020125 53.360821 -0.044412 -7.481351 -2.783128 0.420375 23.334372 4.882681 2.177039 4.855101 1.328124 0.234583 1.406696 -0.582836 -0.000805 25.160635 -4.899685 1.891221 -10.941938 -18.363983 -0.989197 -64.433304 18.954958 -37.767307 -9.450882 -5.000000 20.342737 3.820772 6.898954 -45.000000 9.554705 13.264150 -0.706820 65.217163 -14.928960 -32.010731 7.970616 4.944488 21.623503 -12.002215 3.600105 -45.000000 13.518285 19.048063 20.705734 9.544443 -7.283056 -1.607781 -6.310252 11.639218 -15.397376 11.365926 -9.335302 -8.777535 10.391911 3.530290 0.740459 -5.127009 -11.768985 15.586150 
0.025096 53.365784 -0.004584 -7.431300 -2.812435 0.390634 24.012653 4.932539 2.233132 4.845535 1.308592 0.224812 1.289613 -0.651887 -0.000245 24.959743 -4.977331 2.038839 -10.777352 -18.442020 -0.993226 -64.375122 18.995502 -37.973457 -10.047576 -5.000000 20.506590 3.307693 7.078303 -45.000000 9.497604 13.381182 -0.712878 65.033279 -15.115222 -32.308567 8.580058 5.000000 22.196329 -11.694486 3.663835 -45.000000 13.558344 19.049040 20.889919 9.508506 -7.249215 -1.601530 -6.285959 11.485059 -15.510422 11.404731 -9.335902 -8.917312 10.187403 3.491456 0.752775 -4.905204 -11.557227 15.592594 
0.030069 53.370743 0.035246 -7.371937 -2.841737 0.371122 24.690659 4.972810 2.287128 4.826416 1.289061 0.224804 1.172541 -0.730594 0.001775 24.758076 -5.064689 2.185608 -10.612595 -18.510303 -0.996751 -64.317993 19.036716 -38.176224 -10.642013 -5.000000 20.676790 2.807777 7.265201 -45.000000 9.450156 13.488460 -0.718429 64.859154 -15.276949 -32.607594 9.174385 5.000000 22.764729 -11.397791 3.729430 -45.000000 13.590229 19.031109 21.078955 9.474905 -7.213789 -1.547713 -6.273757 11.414066 -15.606440 11.408853 -9.330821 -9.066245 9.994223 3.451286 0.746330 -4.619883 -11.338844 15.592600 
0.035049 53.365761 0.092985 -7.340588 -2.822218 0.332109 25.426315 4.975379 2.326567 4.816761 1.230467 0.244326 0.996643 -0.680854 0.004133 24.725775 -5.308889 2.118394 -10.531078 -18.502352 -0.987145 -64.281624 19.163288 -38.462513 -11.281742 -5.000000 21.088324 2.021543 7.542130 -45.000000 9.324216 13.566496 -0.722467 64.746979 -15.377344 -32.869068 9.752667 5.000000 23.252810 -11.124168 3.733441 -45.000000 13.678694 18.993031 21.230858 9.443855 -7.222632 -1.535621 -6.462677 11.333611 -15.622237 11.498440 -9.362092 -9.420375 9.835349 3.344912 0.689422 -4.599276 -10.940510 15.816971 
0.040031 53.358273 0.155196 -7.309690 -2.792930 0.302851 26.190081 4.974901 2.344922 4.797299 1.162107 0.263846 0.820757 -0.611803 0.003573 24.747219 -5.592343 1.991064 -10.481538 -18.463348 -0.985132 -64.257904 19.303345 -38.779121 -11.938137 -5.000000 21.551212 1.159160 7.839454 -45.000000 9.188388 13.634781 -0.725999 64.639389 -15.465510 -33.113243 10.329027 5.000000 23.707375 -10.870086 3.728852 -45.000000 13.766981 18.953632 21.402401 9.432321 -7.221309 -1.543097 -6.717498 11.298683 -15.668297 11.578856 -9.373316 -9.860297 9.702763 3.190008 0.621189 -4.639582 -10.559742 16.081127 
0.049986 53.347820 0.226379 -7.250048 -2.773403 0.283344 26.935097 4.979843 2.376306 4.796786 1.093748 0.244309 0.713240 -0.571720 0.007391 24.766029 -5.806953 2.021153 -10.464142 -18.403069 -0.991223 -64.223999 19.511717 -39.129074 -12.623382 -5.000000 22.100519 0.091865 8.299109 -45.000000 9.062075 13.683561 -0.728522 64.532692 -15.563742 -33.352859 10.937563 5.000000 24.144028 -10.439984 3.682071 -45.000000 13.836962 18.915489 21.531872 9.421226 -7.220298 -1.522602 -6.849270 11.130351 -15.735868 11.658865 -9.384147 -10.349931 9.620828 3.032391 0.566603 -4.525769 -10.116454 16.358387 
0.067406 53.332893 0.311006 -7.171449 -2.773406 0.273590 27.651953 5.034158 2.415701 4.795271 1.025391 0.146656 0.713337 -0.582836 -0.000805 24.791082 -5.922963 2.306849 -10.482069 -18.315304 -0.986695 -64.201218 19.786613 -39.553406 -13.372789 -5.000000 22.787085 -1.297698 9.029938 -45.000000 8.925741 13.712841 -0.730038 64.401505 -15.688213 -33.579937 11.599648 5.000000 24.533915 -9.747224 3.554201 -45.000000 13.861135 18.872984 21.617008 9.402451 -7.181589 -1.469463 -6.779588 11.005943 -15.837450 11.735004 -9.354091 -10.912428 9.591257 2.895868 0.545992 -4.227907 -9.559346 16.698252 
